# xmcd CD database file
#
# Track frame offsets:
#	150
#	17227
#	41514
#	65345
#	82042
#	97634
#	115616
#	130534
#	153384
#	169513
#	192692
#	216623
#
# Disc length: 3160 seconds
#
# Revision: 0
# Processed by: cddbd v1.5.2PL0 Copyright (c) Steve Scherf et al.
# Submitted via: CDex 1.51
#
DISCID=9a0c560c
DTITLE=iTommy Koverhult and Ove Holler - In a cool way
DYEAR=2006
DGENRE=Jazz
TTITLE0=Days of wine and roses
TTITLE1=I love you
TTITLE2=How insensitive
TTITLE3=Lady bird
TTITLE4=Stella by starlight
TTITLE5=A foggy day
TTITLE6=Blue bossa
TTITLE7=I should care
TTITLE8=Just friens
TTITLE9=When i fall in love
TTITLE10=Gentle rain
TTITLE11=How high the moon
EXTD=YEAR: 2006
EXTT0=
EXTT1=
EXTT2=
EXTT3=
EXTT4=
EXTT5=
EXTT6=
EXTT7=
EXTT8=
EXTT9=
EXTT10=
EXTT11=
PLAYORDER=
